<?xml version="1.0" encoding="UTF-8" standalone="no"?><!DOCTYPE svg PUBLIC "-//W3C//DTD SVG 1.1//EN" "http://www.w3.org/Graphics/SVG/1.1/DTD/svg11.dtd"><!-- Generated by graphviz version 2.40.1 (20161225.0304)
 --><!-- Title: G Pages: 1 --><svg xmlns="http://www.w3.org/2000/svg" xmlns:xlink="http://www.w3.org/1999/xlink" width="2028pt" height="1299pt" viewBox="0.00 0.00 2028.00 1299.23">
<g id="graph0" class="graph" transform="scale(1 1) rotate(0) translate(4 1295.2321)">
<title>G</title>
<polygon fill="#ffffff" stroke="transparent" points="-4,4 -4,-1295.2321 2024,-1295.2321 2024,4 -4,4"/>
<!-- nr -->
<g id="node1" class="node">
<title>nr</title>
<polygon fill="none" stroke="#000000" points="359,-1291.2321 332,-1273.2321 359,-1255.2321 386,-1273.2321 359,-1291.2321"/>
<text text-anchor="middle" x="359" y="-1269.0321" font-family="Times,serif" font-size="14.00" fill="#000000">nr</text>
</g>
<!-- mr -->
<g id="node26" class="node">
<title>mr</title>
<ellipse fill="none" stroke="#000000" cx="247" cy="-1197.4687" rx="21.5294" ry="21.5294"/>
<text text-anchor="middle" x="247" y="-1193.2687" font-family="Times,serif" font-size="14.00" fill="#000000">mr</text>
</g>
<!-- nr&#45;&gt;mr -->
<g id="edge1" class="edge">
<title>nr-&gt;mr</title>
<path fill="none" stroke="#000000" d="M345.2666,-1263.942C327.5274,-1251.9422 296.2602,-1230.7912 273.7539,-1215.5666"/>
<polygon fill="#000000" stroke="#000000" points="275.5505,-1212.5564 265.3065,-1209.8523 271.6283,-1218.3544 275.5505,-1212.5564"/>
</g>
<!-- sx -->
<g id="node2" class="node">
<title>sx</title>
<ellipse fill="none" stroke="#000000" cx="1567" cy="-168.9968" rx="19.7419" ry="19.7419"/>
<text text-anchor="middle" x="1567" y="-164.7968" font-family="Times,serif" font-size="14.00" fill="#000000">sx</text>
</g>
<!-- zh -->
<g id="node12" class="node">
<title>zh</title>
<ellipse fill="none" stroke="#000000" cx="939" cy="-92.1517" rx="20.3045" ry="20.3045"/>
<text text-anchor="middle" x="939" y="-87.9517" font-family="Times,serif" font-size="14.00" fill="#000000">zh</text>
</g>
<!-- sx&#45;&gt;zh -->
<g id="edge2" class="edge">
<title>sx-&gt;zh</title>
<path fill="none" stroke="#000000" d="M1547.5166,-166.6128C1457.255,-155.5679 1079.4793,-109.3414 969.2902,-95.8582"/>
<polygon fill="#000000" stroke="#000000" points="969.5442,-92.3632 959.1931,-94.6226 968.6939,-99.3114 969.5442,-92.3632"/>
</g>
<!-- rk -->
<g id="node3" class="node">
<title>rk</title>
<polygon fill="none" stroke="#000000" points="1189,-702.3183 1162,-684.3183 1189,-666.3183 1216,-684.3183 1189,-702.3183"/>
<text text-anchor="middle" x="1189" y="-680.1183" font-family="Times,serif" font-size="14.00" fill="#000000">rk</text>
</g>
<!-- bl -->
<g id="node11" class="node">
<title>bl</title>
<ellipse fill="none" stroke="#000000" cx="1229" cy="-1047.0118" rx="18.5974" ry="18.5974"/>
<text text-anchor="middle" x="1229" y="-1042.8118" font-family="Times,serif" font-size="14.00" fill="#000000">bl</text>
</g>
<!-- rk&#45;&gt;bl -->
<g id="edge4" class="edge">
<title>rk-&gt;bl</title>
<path fill="none" stroke="#000000" d="M1185.8024,-700.6569C1180.8779,-727.2845 1172,-781.7472 1172,-828.3183 1172,-900.3183 1172,-900.3183 1172,-900.3183 1172,-945.977 1196.2883,-994.5339 1213.1555,-1022.7497"/>
<polygon fill="#000000" stroke="#000000" points="1210.3224,-1024.8242 1218.5453,-1031.5051 1216.2835,-1021.1545 1210.3224,-1024.8242"/>
</g>
<!-- dc -->
<g id="node37" class="node">
<title>dc</title>
<polygon fill="none" stroke="#000000" points="1152,-630.3183 1123.5024,-612.3183 1152,-594.3183 1180.4976,-612.3183 1152,-630.3183"/>
<text text-anchor="middle" x="1152" y="-608.1183" font-family="Times,serif" font-size="14.00" fill="#000000">dc</text>
</g>
<!-- rk&#45;&gt;dc -->
<g id="edge3" class="edge">
<title>rk-&gt;dc</title>
<path fill="none" stroke="#000000" d="M1182.0406,-670.7757C1176.938,-660.8464 1169.8853,-647.1221 1163.8957,-635.4666"/>
<polygon fill="#000000" stroke="#000000" points="1166.8643,-633.5859 1159.1806,-626.2914 1160.6383,-636.7855 1166.8643,-633.5859"/>
</g>
<!-- lx -->
<g id="node4" class="node">
<title>lx</title>
<polygon fill="none" stroke="#000000" points="887,-846.3183 860,-828.3183 887,-810.3183 914,-828.3183 887,-846.3183"/>
<text text-anchor="middle" x="887" y="-824.1183" font-family="Times,serif" font-size="14.00" fill="#000000">lx</text>
</g>
<!-- rs -->
<g id="node25" class="node">
<title>rs</title>
<polygon fill="none" stroke="#000000" points="849,-774.3183 822,-756.3183 849,-738.3183 876,-756.3183 849,-774.3183"/>
<text text-anchor="middle" x="849" y="-752.1183" font-family="Times,serif" font-size="14.00" fill="#000000">rs</text>
</g>
<!-- lx&#45;&gt;rs -->
<g id="edge5" class="edge">
<title>lx-&gt;rs</title>
<path fill="none" stroke="#000000" d="M879.8525,-814.7757C874.4918,-804.6185 867.0351,-790.4902 860.7954,-778.6675"/>
<polygon fill="#000000" stroke="#000000" points="863.8784,-777.0104 856.1155,-769.8003 857.6877,-780.2778 863.8784,-777.0104"/>
</g>
<!-- hx -->
<g id="node5" class="node">
<title>hx</title>
<polygon fill="none" stroke="#000000" points="1093,-264.3838 1063.9682,-246.3838 1093,-228.3838 1122.0318,-246.3838 1093,-264.3838"/>
<text text-anchor="middle" x="1093" y="-242.1838" font-family="Times,serif" font-size="14.00" fill="#000000">hx</text>
</g>
<!-- hx&#45;&gt;bl -->
<g id="edge6" class="edge">
<title>hx-&gt;bl</title>
<path fill="none" stroke="#000000" d="M1082.5409,-258.2494C1062.3557,-282.4193 1020,-339.8626 1020,-396.3183 1020,-900.3183 1020,-900.3183 1020,-900.3183 1020,-946.2942 1035.8321,-960.7042 1071,-990.3183 1108.8164,-1022.1628 1165.8945,-1036.6983 1200.1006,-1042.8812"/>
<polygon fill="#000000" stroke="#000000" points="1199.9071,-1046.3978 1210.3494,-1044.6065 1201.0692,-1039.495 1199.9071,-1046.3978"/>
</g>
<!-- hp -->
<g id="node6" class="node">
<title>hp</title>
<polygon fill="none" stroke="#000000" points="813,-702.3183 783.9682,-684.3183 813,-666.3183 842.0318,-684.3183 813,-702.3183"/>
<text text-anchor="middle" x="813" y="-680.1183" font-family="Times,serif" font-size="14.00" fill="#000000">hp</text>
</g>
<!-- bj -->
<g id="node9" class="node">
<title>bj</title>
<polygon fill="none" stroke="#000000" points="773,-630.3183 746,-612.3183 773,-594.3183 800,-612.3183 773,-630.3183"/>
<text text-anchor="middle" x="773" y="-608.1183" font-family="Times,serif" font-size="14.00" fill="#000000">bj</text>
</g>
<!-- hp&#45;&gt;bj -->
<g id="edge7" class="edge">
<title>hp-&gt;bj</title>
<path fill="none" stroke="#000000" d="M805.4763,-670.7757C799.8334,-660.6185 791.9844,-646.4902 785.4162,-634.6675"/>
<polygon fill="#000000" stroke="#000000" points="788.406,-632.8421 780.49,-625.8003 782.2869,-636.2416 788.406,-632.8421"/>
</g>
<!-- dk -->
<g id="node7" class="node">
<title>dk</title>
<polygon fill="none" stroke="#000000" points="285,-918.3183 255.9682,-900.3183 285,-882.3183 314.0318,-900.3183 285,-918.3183"/>
<text text-anchor="middle" x="285" y="-896.1183" font-family="Times,serif" font-size="14.00" fill="#000000">dk</text>
</g>
<!-- dk&#45;&gt;mr -->
<g id="edge8" class="edge">
<title>dk-&gt;mr</title>
<path fill="none" stroke="#000000" d="M282.8357,-917.2427C276.6998,-965.2237 259.1171,-1102.7161 251.0878,-1165.5034"/>
<polygon fill="#000000" stroke="#000000" points="247.5911,-1165.2553 249.7942,-1175.6185 254.5345,-1166.1433 247.5911,-1165.2553"/>
</g>
<!-- lf -->
<g id="node48" class="node">
<title>lf</title>
<polygon fill="none" stroke="#000000" points="245,-846.3183 218,-828.3183 245,-810.3183 272,-828.3183 245,-846.3183"/>
<text text-anchor="middle" x="245" y="-824.1183" font-family="Times,serif" font-size="14.00" fill="#000000">lf</text>
</g>
<!-- dk&#45;&gt;lf -->
<g id="edge9" class="edge">
<title>dk-&gt;lf</title>
<path fill="none" stroke="#000000" d="M277.4763,-886.7757C271.8334,-876.6185 263.9844,-862.4902 257.4162,-850.6675"/>
<polygon fill="#000000" stroke="#000000" points="260.406,-848.8421 252.49,-841.8003 254.2869,-852.2416 260.406,-848.8421"/>
</g>
<!-- hc -->
<g id="node8" class="node">
<title>hc</title>
<polygon fill="none" stroke="#000000" points="1266,-846.3183 1237.5024,-828.3183 1266,-810.3183 1294.4976,-828.3183 1266,-846.3183"/>
<text text-anchor="middle" x="1266" y="-824.1183" font-family="Times,serif" font-size="14.00" fill="#000000">hc</text>
</g>
<!-- xc -->
<g id="node38" class="node">
<title>xc</title>
<polygon fill="none" stroke="#000000" points="1228,-774.3183 1199.5024,-756.3183 1228,-738.3183 1256.4976,-756.3183 1228,-774.3183"/>
<text text-anchor="middle" x="1228" y="-752.1183" font-family="Times,serif" font-size="14.00" fill="#000000">xc</text>
</g>
<!-- hc&#45;&gt;xc -->
<g id="edge10" class="edge">
<title>hc-&gt;xc</title>
<path fill="none" stroke="#000000" d="M1258.8525,-814.7757C1253.612,-804.8464 1246.3686,-791.1221 1240.2172,-779.4666"/>
<polygon fill="#000000" stroke="#000000" points="1243.1376,-777.5016 1235.3747,-770.2914 1236.9469,-780.7689 1243.1376,-777.5016"/>
</g>
<!-- rd -->
<g id="node14" class="node">
<title>rd</title>
<polygon fill="none" stroke="#000000" points="735,-558.3183 708,-540.3183 735,-522.3183 762,-540.3183 735,-558.3183"/>
<text text-anchor="middle" x="735" y="-536.1183" font-family="Times,serif" font-size="14.00" fill="#000000">rd</text>
</g>
<!-- bj&#45;&gt;rd -->
<g id="edge12" class="edge">
<title>bj-&gt;rd</title>
<path fill="none" stroke="#000000" d="M765.8525,-598.7757C760.4918,-588.6185 753.0351,-574.4902 746.7954,-562.6675"/>
<polygon fill="#000000" stroke="#000000" points="749.8784,-561.0104 742.1155,-553.8003 743.6877,-564.2778 749.8784,-561.0104"/>
</g>
<!-- vv -->
<g id="node52" class="node">
<title>vv</title>
<ellipse fill="none" stroke="#000000" cx="775" cy="-1047.0118" rx="20.8887" ry="20.8887"/>
<text text-anchor="middle" x="775" y="-1042.8118" font-family="Times,serif" font-size="14.00" fill="#000000">vv</text>
</g>
<!-- bj&#45;&gt;vv -->
<g id="edge11" class="edge">
<title>bj-&gt;vv</title>
<path fill="none" stroke="#000000" d="M769.8024,-628.6569C764.8779,-655.2845 756,-709.7472 756,-756.3183 756,-900.3183 756,-900.3183 756,-900.3183 756,-940.801 763.2046,-987.0512 768.7409,-1016.6152"/>
<polygon fill="#000000" stroke="#000000" points="765.3575,-1017.5547 770.6886,-1026.7106 772.2307,-1016.2286 765.3575,-1017.5547"/>
</g>
<!-- jt -->
<g id="node10" class="node">
<title>jt</title>
<ellipse fill="none" stroke="#000000" cx="665" cy="-168.9968" rx="18" ry="18"/>
<text text-anchor="middle" x="665" y="-164.7968" font-family="Times,serif" font-size="14.00" fill="#000000">jt</text>
</g>
<!-- jt&#45;&gt;zh -->
<g id="edge13" class="edge">
<title>jt-&gt;zh</title>
<path fill="none" stroke="#000000" d="M682.5567,-164.0729C728.4798,-151.1935 852.5358,-116.4012 909.5784,-100.4032"/>
<polygon fill="#000000" stroke="#000000" points="910.7324,-103.7147 919.4157,-97.6442 908.8421,-96.9747 910.7324,-103.7147"/>
</g>
<!-- bl&#45;&gt;hc -->
<g id="edge17" class="edge">
<title>bl-&gt;hc</title>
<path fill="none" stroke="#000000" d="M1232.1546,-1028.3661C1238.7255,-989.528 1253.8983,-899.8471 1261.4953,-854.9438"/>
<polygon fill="#000000" stroke="#000000" points="1264.9937,-855.2473 1263.2109,-844.8035 1258.0917,-854.0795 1264.9937,-855.2473"/>
</g>
<!-- kn -->
<g id="node22" class="node">
<title>kn</title>
<polygon fill="none" stroke="#000000" points="1229,-1139.7052 1199.9682,-1121.7052 1229,-1103.7052 1258.0318,-1121.7052 1229,-1139.7052"/>
<text text-anchor="middle" x="1229" y="-1117.5052" font-family="Times,serif" font-size="14.00" fill="#000000">kn</text>
</g>
<!-- bl&#45;&gt;kn -->
<g id="edge15" class="edge">
<title>bl-&gt;kn</title>
<path fill="none" stroke="#000000" d="M1234.8313,-1064.6289C1235.8153,-1074.1905 1236.0088,-1086.1724 1235.4119,-1096.6862"/>
<polygon fill="#000000" stroke="#000000" points="1231.899,-1096.6786 1234.5037,-1106.9482 1238.8718,-1097.2957 1231.899,-1096.6786"/>
</g>
<!-- zk -->
<g id="node30" class="node">
<title>zk</title>
<polygon fill="none" stroke="#000000" points="1492,-990.3183 1463.5024,-972.3183 1492,-954.3183 1520.4976,-972.3183 1492,-990.3183"/>
<text text-anchor="middle" x="1492" y="-968.1183" font-family="Times,serif" font-size="14.00" fill="#000000">zk</text>
</g>
<!-- bl&#45;&gt;zk -->
<g id="edge18" class="edge">
<title>bl-&gt;zk</title>
<path fill="none" stroke="#000000" d="M1247.3244,-1043.3113C1285.5401,-1035.3766 1376.3151,-1015.393 1450,-990.3183 1455.2172,-988.5429 1460.6957,-986.4056 1465.9095,-984.2335"/>
<polygon fill="#000000" stroke="#000000" points="1467.6811,-987.2808 1475.4711,-980.0998 1464.9032,-980.8555 1467.6811,-987.2808"/>
</g>
<!-- bl&#45;&gt;dc -->
<g id="edge16" class="edge">
<title>bl-&gt;dc</title>
<path fill="none" stroke="#000000" d="M1214.1563,-1035.014C1187.4375,-1011.9615 1134,-958.5744 1134,-900.3183 1134,-900.3183 1134,-900.3183 1134,-756.3183 1134,-714.9884 1141.3911,-667.4977 1146.7009,-638.7125"/>
<polygon fill="#000000" stroke="#000000" points="1150.185,-639.1258 1148.6143,-628.648 1143.3082,-637.8183 1150.185,-639.1258"/>
</g>
<!-- ks -->
<g id="node53" class="node">
<title>ks</title>
<ellipse fill="none" stroke="#000000" cx="1370" cy="-322.6978" rx="19.7419" ry="19.7419"/>
<text text-anchor="middle" x="1370" y="-318.4978" font-family="Times,serif" font-size="14.00" fill="#000000">ks</text>
</g>
<!-- bl&#45;&gt;ks -->
<g id="edge14" class="edge">
<title>bl-&gt;ks</title>
<path fill="none" stroke="#000000" d="M1247.3699,-1043.3026C1298.0305,-1031.8947 1436,-992.3757 1436,-900.3183 1436,-900.3183 1436,-900.3183 1436,-468.3183 1436,-421.9829 1407.9359,-374.1568 1388.408,-346.4866"/>
<polygon fill="#000000" stroke="#000000" points="1391.1242,-344.2705 1382.4141,-338.2384 1385.4614,-348.3856 1391.1242,-344.2705"/>
</g>
<!-- rx -->
<g id="node58" class="node">
<title>rx</title>
<ellipse fill="none" stroke="#000000" cx="939" cy="-18" rx="27" ry="18"/>
<text text-anchor="middle" x="939" y="-13.8" font-family="Times,serif" font-size="14.00" fill="#000000">rx</text>
</g>
<!-- zh&#45;&gt;rx -->
<g id="edge19" class="edge">
<title>zh-&gt;rx</title>
<path fill="none" stroke="#000000" d="M939,-71.8894C939,-64.0503 939,-54.9389 939,-46.4631"/>
<polygon fill="#000000" stroke="#000000" points="942.5001,-46.2107 939,-36.2108 935.5001,-46.2108 942.5001,-46.2107"/>
</g>
<!-- sp -->
<g id="node13" class="node">
<title>sp</title>
<polygon fill="none" stroke="#000000" points="1237,-414.3183 1209.0024,-396.3183 1237,-378.3183 1264.9976,-396.3183 1237,-414.3183"/>
<text text-anchor="middle" x="1237" y="-392.1183" font-family="Times,serif" font-size="14.00" fill="#000000">sp</text>
</g>
<!-- sp&#45;&gt;bl -->
<g id="edge21" class="edge">
<title>sp-&gt;bl</title>
<path fill="none" stroke="#000000" d="M1252.3293,-404.6798C1285.3017,-423.9136 1360,-474.7256 1360,-540.3183 1360,-900.3183 1360,-900.3183 1360,-900.3183 1360,-962.9575 1292.7269,-1011.1527 1254.5983,-1033.4381"/>
<polygon fill="#000000" stroke="#000000" points="1252.5682,-1030.5654 1245.5912,-1038.5386 1256.0176,-1036.6566 1252.5682,-1030.5654"/>
</g>
<!-- hz -->
<g id="node40" class="node">
<title>hz</title>
<polygon fill="none" stroke="#000000" points="1237,-340.6978 1208.5024,-322.6978 1237,-304.6978 1265.4976,-322.6978 1237,-340.6978"/>
<text text-anchor="middle" x="1237" y="-318.4978" font-family="Times,serif" font-size="14.00" fill="#000000">hz</text>
</g>
<!-- sp&#45;&gt;hz -->
<g id="edge20" class="edge">
<title>sp-&gt;hz</title>
<path fill="none" stroke="#000000" d="M1237,-378.12C1237,-369.9792 1237,-360.1902 1237,-351.1191"/>
<polygon fill="#000000" stroke="#000000" points="1240.5001,-350.9419 1237,-340.9419 1233.5001,-350.942 1240.5001,-350.9419"/>
</g>
<!-- rd&#45;&gt;vv -->
<g id="edge22" class="edge">
<title>rd-&gt;vv</title>
<path fill="none" stroke="#000000" d="M731.8024,-556.6569C726.8779,-583.2845 718,-637.7472 718,-684.3183 718,-900.3183 718,-900.3183 718,-900.3183 718,-944.9951 741.2548,-992.4468 758.0573,-1020.9013"/>
<polygon fill="#000000" stroke="#000000" points="755.2779,-1023.0669 763.4652,-1029.7914 761.2583,-1019.4289 755.2779,-1023.0669"/>
</g>
<!-- tp -->
<g id="node55" class="node">
<title>tp</title>
<polygon fill="none" stroke="#000000" points="697,-486.3183 670,-468.3183 697,-450.3183 724,-468.3183 697,-486.3183"/>
<text text-anchor="middle" x="697" y="-464.1183" font-family="Times,serif" font-size="14.00" fill="#000000">tp</text>
</g>
<!-- rd&#45;&gt;tp -->
<g id="edge23" class="edge">
<title>rd-&gt;tp</title>
<path fill="none" stroke="#000000" d="M727.8525,-526.7757C722.4918,-516.6185 715.0351,-502.4902 708.7954,-490.6675"/>
<polygon fill="#000000" stroke="#000000" points="711.8784,-489.0104 704.1155,-481.8003 705.6877,-492.2778 711.8784,-489.0104"/>
</g>
<!-- cg -->
<g id="node15" class="node">
<title>cg</title>
<polygon fill="none" stroke="#000000" points="322,-990.3183 293.5024,-972.3183 322,-954.3183 350.4976,-972.3183 322,-990.3183"/>
<text text-anchor="middle" x="322" y="-968.1183" font-family="Times,serif" font-size="14.00" fill="#000000">cg</text>
</g>
<!-- cg&#45;&gt;dk -->
<g id="edge24" class="edge">
<title>cg-&gt;dk</title>
<path fill="none" stroke="#000000" d="M314.866,-958.436C309.7474,-948.4754 302.7334,-934.8266 296.7889,-923.2589"/>
<polygon fill="#000000" stroke="#000000" points="299.7958,-921.4526 292.1121,-914.158 293.5698,-924.6521 299.7958,-921.4526"/>
</g>
<!-- rg -->
<g id="node16" class="node">
<title>rg</title>
<polygon fill="none" stroke="#000000" points="1659,-990.3183 1632,-972.3183 1659,-954.3183 1686,-972.3183 1659,-990.3183"/>
<text text-anchor="middle" x="1659" y="-968.1183" font-family="Times,serif" font-size="14.00" fill="#000000">rg</text>
</g>
<!-- jl -->
<g id="node17" class="node">
<title>jl</title>
<polygon fill="none" stroke="#000000" points="1945,-918.3183 1918,-900.3183 1945,-882.3183 1972,-900.3183 1945,-918.3183"/>
<text text-anchor="middle" x="1945" y="-896.1183" font-family="Times,serif" font-size="14.00" fill="#000000">jl</text>
</g>
<!-- rg&#45;&gt;jl -->
<g id="edge25" class="edge">
<title>rg-&gt;jl</title>
<path fill="none" stroke="#000000" d="M1678.6579,-967.3695C1727.9463,-954.9612 1857.0135,-922.4688 1915.4711,-907.7522"/>
<polygon fill="#000000" stroke="#000000" points="1916.3616,-911.1373 1925.2045,-905.3018 1914.6526,-904.3491 1916.3616,-911.1373"/>
</g>
<!-- pv -->
<g id="node56" class="node">
<title>pv</title>
<ellipse fill="none" stroke="#000000" cx="1737" cy="-246.3838" rx="20.8887" ry="20.8887"/>
<text text-anchor="middle" x="1737" y="-242.1838" font-family="Times,serif" font-size="14.00" fill="#000000">pv</text>
</g>
<!-- rg&#45;&gt;pv -->
<g id="edge26" class="edge">
<title>rg-&gt;pv</title>
<path fill="none" stroke="#000000" d="M1655.8024,-955.9797C1650.8779,-929.3522 1642,-874.8895 1642,-828.3183 1642,-828.3183 1642,-828.3183 1642,-396.3183 1642,-343.0821 1685.2632,-293.4166 1713.3986,-266.7465"/>
<polygon fill="#000000" stroke="#000000" points="1715.9012,-269.1998 1720.8845,-259.8501 1711.1583,-264.0515 1715.9012,-269.1998"/>
</g>
<!-- js -->
<g id="node42" class="node">
<title>js</title>
<polygon fill="none" stroke="#000000" points="1945,-846.3183 1918,-828.3183 1945,-810.3183 1972,-828.3183 1945,-846.3183"/>
<text text-anchor="middle" x="1945" y="-824.1183" font-family="Times,serif" font-size="14.00" fill="#000000">js</text>
</g>
<!-- jl&#45;&gt;js -->
<g id="edge27" class="edge">
<title>jl-&gt;js</title>
<path fill="none" stroke="#000000" d="M1945,-882.1497C1945,-874.4493 1945,-865.2927 1945,-856.735"/>
<polygon fill="#000000" stroke="#000000" points="1948.5001,-856.7316 1945,-846.7316 1941.5001,-856.7316 1948.5001,-856.7316"/>
</g>
<!-- fb -->
<g id="node18" class="node">
<title>fb</title>
<polygon fill="none" stroke="#000000" points="879,-1139.7052 852,-1121.7052 879,-1103.7052 906,-1121.7052 879,-1139.7052"/>
<text text-anchor="middle" x="879" y="-1117.5052" font-family="Times,serif" font-size="14.00" fill="#000000">fb</text>
</g>
<!-- fb&#45;&gt;vv -->
<g id="edge28" class="edge">
<title>fb-&gt;vv</title>
<path fill="none" stroke="#000000" d="M863.4998,-1113.7117C845.9676,-1102.8448 817.7815,-1083.0206 797.821,-1067.7987"/>
<polygon fill="#000000" stroke="#000000" points="799.8719,-1064.96 789.8252,-1061.5963 795.5814,-1070.4911 799.8719,-1064.96"/>
</g>
<!-- zd -->
<g id="node57" class="node">
<title>zd</title>
<polygon fill="none" stroke="#000000" points="964,-990.3183 935.5024,-972.3183 964,-954.3183 992.4976,-972.3183 964,-990.3183"/>
<text text-anchor="middle" x="964" y="-968.1183" font-family="Times,serif" font-size="14.00" fill="#000000">zd</text>
</g>
<!-- fb&#45;&gt;zd -->
<g id="edge29" class="edge">
<title>fb-&gt;zd</title>
<path fill="none" stroke="#000000" d="M886.5432,-1108.4482C901.1244,-1082.8218 933.3193,-1026.2394 951.2724,-994.687"/>
<polygon fill="#000000" stroke="#000000" points="954.4481,-996.1829 956.3515,-985.7605 948.364,-992.7211 954.4481,-996.1829"/>
</g>
<!-- gv -->
<g id="node19" class="node">
<title>gv</title>
<polygon fill="none" stroke="#000000" points="927,-918.3183 897.9682,-900.3183 927,-882.3183 956.0318,-900.3183 927,-918.3183"/>
<text text-anchor="middle" x="927" y="-896.1183" font-family="Times,serif" font-size="14.00" fill="#000000">gv</text>
</g>
<!-- gv&#45;&gt;lx -->
<g id="edge30" class="edge">
<title>gv-&gt;lx</title>
<path fill="none" stroke="#000000" d="M919.4763,-886.7757C913.8334,-876.6185 905.9844,-862.4902 899.4162,-850.6675"/>
<polygon fill="#000000" stroke="#000000" points="902.406,-848.8421 894.49,-841.8003 896.2869,-852.2416 902.406,-848.8421"/>
</g>
<!-- lr -->
<g id="node20" class="node">
<title>lr</title>
<polygon fill="none" stroke="#000000" points="1132,-558.3183 1105,-540.3183 1132,-522.3183 1159,-540.3183 1132,-558.3183"/>
<text text-anchor="middle" x="1132" y="-536.1183" font-family="Times,serif" font-size="14.00" fill="#000000">lr</text>
</g>
<!-- lr&#45;&gt;bl -->
<g id="edge32" class="edge">
<title>lr-&gt;bl</title>
<path fill="none" stroke="#000000" d="M1125.8931,-554.7377C1115.6221,-580.3362 1096,-635.6142 1096,-684.3183 1096,-900.3183 1096,-900.3183 1096,-900.3183 1096,-963.3835 1164.3002,-1011.3942 1203.0109,-1033.5407"/>
<polygon fill="#000000" stroke="#000000" points="1201.7121,-1036.8224 1212.1555,-1038.6074 1205.1046,-1030.6994 1201.7121,-1036.8224"/>
</g>
<!-- vj -->
<g id="node33" class="node">
<title>vj</title>
<polygon fill="none" stroke="#000000" points="1132,-486.3183 1105,-468.3183 1132,-450.3183 1159,-468.3183 1132,-486.3183"/>
<text text-anchor="middle" x="1132" y="-464.1183" font-family="Times,serif" font-size="14.00" fill="#000000">vj</text>
</g>
<!-- lr&#45;&gt;vj -->
<g id="edge31" class="edge">
<title>lr-&gt;vj</title>
<path fill="none" stroke="#000000" d="M1132,-522.1497C1132,-514.4493 1132,-505.2927 1132,-496.735"/>
<polygon fill="#000000" stroke="#000000" points="1135.5001,-496.7316 1132,-486.7316 1128.5001,-496.7316 1135.5001,-496.7316"/>
</g>
<!-- vz -->
<g id="node21" class="node">
<title>vz</title>
<polygon fill="none" stroke="#000000" points="1304,-918.3183 1275.5024,-900.3183 1304,-882.3183 1332.4976,-900.3183 1304,-918.3183"/>
<text text-anchor="middle" x="1304" y="-896.1183" font-family="Times,serif" font-size="14.00" fill="#000000">vz</text>
</g>
<!-- vz&#45;&gt;hc -->
<g id="edge33" class="edge">
<title>vz-&gt;hc</title>
<path fill="none" stroke="#000000" d="M1296.8525,-886.7757C1291.612,-876.8464 1284.3686,-863.1221 1278.2172,-851.4666"/>
<polygon fill="#000000" stroke="#000000" points="1281.1376,-849.5016 1273.3747,-842.2914 1274.9469,-852.7689 1281.1376,-849.5016"/>
</g>
<!-- vz&#45;&gt;bl -->
<g id="edge34" class="edge">
<title>vz-&gt;bl</title>
<path fill="none" stroke="#000000" d="M1297.8411,-914.5407C1289.9794,-932.4446 1275.7446,-964.0382 1262,-990.3183 1256.4803,-1000.8721 1249.9633,-1012.2642 1244.1849,-1022.0485"/>
<polygon fill="#000000" stroke="#000000" points="1241.0474,-1020.4762 1238.9278,-1030.8569 1247.0582,-1024.0637 1241.0474,-1020.4762"/>
</g>
<!-- kn&#45;&gt;bl -->
<g id="edge35" class="edge">
<title>kn-&gt;bl</title>
<path fill="none" stroke="#000000" d="M1223.4963,-1106.9482C1222.3261,-1097.7336 1221.9799,-1085.5802 1222.4579,-1074.6272"/>
<polygon fill="#000000" stroke="#000000" points="1225.9507,-1074.8519 1223.1687,-1064.6289 1218.9683,-1074.3555 1225.9507,-1074.8519"/>
</g>
<!-- kn&#45;&gt;zk -->
<g id="edge36" class="edge">
<title>kn-&gt;zk</title>
<path fill="none" stroke="#000000" d="M1244.2768,-1113.0279C1288.1271,-1088.1204 1414.6504,-1016.2538 1467.9132,-985.9999"/>
<polygon fill="#000000" stroke="#000000" points="1469.7145,-989.002 1476.6811,-981.0197 1466.2572,-982.9154 1469.7145,-989.002"/>
</g>
<!-- rj -->
<g id="node23" class="node">
<title>rj</title>
<polygon fill="none" stroke="#000000" points="274,-414.3183 247,-396.3183 274,-378.3183 301,-396.3183 274,-414.3183"/>
<text text-anchor="middle" x="274" y="-392.1183" font-family="Times,serif" font-size="14.00" fill="#000000">rj</text>
</g>
<!-- rj&#45;&gt;nr -->
<g id="edge38" class="edge">
<title>rj-&gt;nr</title>
<path fill="none" stroke="#000000" d="M295.5006,-400.027C350.1353,-410.8084 490,-447.4754 490,-540.3183 490,-1121.7052 490,-1121.7052 490,-1121.7052 490,-1186.4626 420.6833,-1237.187 382.8941,-1260.0287"/>
<polygon fill="#000000" stroke="#000000" points="380.8841,-1257.1498 374.0274,-1265.2267 384.4243,-1263.1886 380.8841,-1257.1498"/>
</g>
<!-- rj&#45;&gt;mr -->
<g id="edge37" class="edge">
<title>rj-&gt;mr</title>
<path fill="none" stroke="#000000" d="M250.9416,-399.2709C191.5579,-408.2927 38,-441.2043 38,-540.3183 38,-1047.0118 38,-1047.0118 38,-1047.0118 38,-1094.4677 54.7958,-1109.0243 91,-1139.7052 127.2407,-1170.417 181.312,-1185.5095 215.3399,-1192.3753"/>
<polygon fill="#000000" stroke="#000000" points="214.7375,-1195.8234 225.2148,-1194.2502 216.0432,-1188.9462 214.7375,-1195.8234"/>
</g>
<!-- cn -->
<g id="node24" class="node">
<title>cn</title>
<polygon fill="none" stroke="#000000" points="1850,-414.3183 1821.5024,-396.3183 1850,-378.3183 1878.4976,-396.3183 1850,-414.3183"/>
<text text-anchor="middle" x="1850" y="-392.1183" font-family="Times,serif" font-size="14.00" fill="#000000">cn</text>
</g>
<!-- sb -->
<g id="node35" class="node">
<title>sb</title>
<polygon fill="none" stroke="#000000" points="1888,-340.6978 1860.0024,-322.6978 1888,-304.6978 1915.9976,-322.6978 1888,-340.6978"/>
<text text-anchor="middle" x="1888" y="-318.4978" font-family="Times,serif" font-size="14.00" fill="#000000">sb</text>
</g>
<!-- cn&#45;&gt;sb -->
<g id="edge40" class="edge">
<title>cn-&gt;sb</title>
<path fill="none" stroke="#000000" d="M1857.1475,-382.4709C1862.5422,-372.0194 1870.0593,-357.4557 1876.3229,-345.3208"/>
<polygon fill="#000000" stroke="#000000" points="1879.5364,-346.7259 1881.0129,-336.2344 1873.3161,-343.5152 1879.5364,-346.7259"/>
</g>
<!-- cn&#45;&gt;pv -->
<g id="edge39" class="edge">
<title>cn-&gt;pv</title>
<path fill="none" stroke="#000000" d="M1845.5574,-380.9212C1839.3933,-361.3913 1826.8341,-327.3397 1808,-303.0772 1795.6646,-287.1864 1777.9992,-273.0584 1763.3755,-262.8806"/>
<polygon fill="#000000" stroke="#000000" points="1764.9898,-259.7485 1754.7382,-257.0735 1761.0842,-265.5576 1764.9898,-259.7485"/>
</g>
<!-- rs&#45;&gt;hp -->
<g id="edge42" class="edge">
<title>rs-&gt;hp</title>
<path fill="none" stroke="#000000" d="M842.2287,-742.7757C837.264,-732.8464 830.4019,-719.1221 824.5741,-707.4666"/>
<polygon fill="#000000" stroke="#000000" points="827.5892,-705.6704 819.9865,-698.2914 821.3282,-708.8009 827.5892,-705.6704"/>
</g>
<!-- rs&#45;&gt;vv -->
<g id="edge41" class="edge">
<title>rs-&gt;vv</title>
<path fill="none" stroke="#000000" d="M848.0363,-773.8889C845.409,-813.5993 836.3077,-912.8399 808,-990.3183 804.0905,-1001.0187 798.1977,-1012.0129 792.4685,-1021.4376"/>
<polygon fill="#000000" stroke="#000000" points="789.4833,-1019.6096 787.0957,-1029.9319 795.3993,-1023.3515 789.4833,-1019.6096"/>
</g>
<!-- mr&#45;&gt;cg -->
<g id="edge48" class="edge">
<title>mr-&gt;cg</title>
<path fill="none" stroke="#000000" d="M259.2015,-1179.131C266.1039,-1168.0872 274.4399,-1153.5278 280,-1139.7052 299.2704,-1091.7986 311.63,-1032.5297 317.6499,-998.9108"/>
<polygon fill="#000000" stroke="#000000" points="321.118,-999.3955 319.3823,-988.9438 314.2214,-998.1967 321.118,-999.3955"/>
</g>
<!-- kb -->
<g id="node34" class="node">
<title>kb</title>
<ellipse fill="none" stroke="#000000" cx="235" cy="-168.9968" rx="20.8887" ry="20.8887"/>
<text text-anchor="middle" x="235" y="-164.7968" font-family="Times,serif" font-size="14.00" fill="#000000">kb</text>
</g>
<!-- mr&#45;&gt;kb -->
<g id="edge44" class="edge">
<title>mr-&gt;kb</title>
<path fill="none" stroke="#000000" d="M225.1089,-1196.352C186.0501,-1193.3012 103.5285,-1181.9402 51,-1139.7052 14.355,-1110.2413 0,-1094.0328 0,-1047.0118 0,-1047.0118 0,-1047.0118 0,-322.6978 0,-225.9521 141.2211,-186.8365 204.713,-174.1393"/>
<polygon fill="#000000" stroke="#000000" points="205.3907,-177.5732 214.5564,-172.259 204.0773,-170.6975 205.3907,-177.5732"/>
</g>
<!-- vl -->
<g id="node36" class="node">
<title>vl</title>
<polygon fill="none" stroke="#000000" points="435,-1139.7052 408,-1121.7052 435,-1103.7052 462,-1121.7052 435,-1139.7052"/>
<text text-anchor="middle" x="435" y="-1117.5052" font-family="Times,serif" font-size="14.00" fill="#000000">vl</text>
</g>
<!-- mr&#45;&gt;vl -->
<g id="edge46" class="edge">
<title>mr-&gt;vl</title>
<path fill="none" stroke="#000000" d="M266.6009,-1187.5503C293.6387,-1176.2808 342.9705,-1157.181 385,-1139.7052 391.8102,-1136.8736 399.2039,-1133.6685 406.2713,-1130.7557"/>
<polygon fill="#000000" stroke="#000000" points="407.6287,-1133.9825 415.6211,-1127.0274 405.0359,-1127.4804 407.6287,-1133.9825"/>
</g>
<!-- gc -->
<g id="node45" class="node">
<title>gc</title>
<polygon fill="none" stroke="#000000" points="208,-774.3183 179.5024,-756.3183 208,-738.3183 236.4976,-756.3183 208,-774.3183"/>
<text text-anchor="middle" x="208" y="-752.1183" font-family="Times,serif" font-size="14.00" fill="#000000">gc</text>
</g>
<!-- mr&#45;&gt;gc -->
<g id="edge45" class="edge">
<title>mr-&gt;gc</title>
<path fill="none" stroke="#000000" d="M234.9118,-1178.8546C218.1799,-1151.2484 190,-1097.2906 190,-1047.0118 190,-1047.0118 190,-1047.0118 190,-900.3183 190,-858.9884 197.3911,-811.4977 202.7009,-782.7125"/>
<polygon fill="#000000" stroke="#000000" points="206.185,-783.1258 204.6143,-772.648 199.3082,-781.8183 206.185,-783.1258"/>
</g>
<!-- bs -->
<g id="node47" class="node">
<title>bs</title>
<polygon fill="none" stroke="#000000" points="151,-630.3183 123.0024,-612.3183 151,-594.3183 178.9976,-612.3183 151,-630.3183"/>
<text text-anchor="middle" x="151" y="-608.1183" font-family="Times,serif" font-size="14.00" fill="#000000">bs</text>
</g>
<!-- mr&#45;&gt;bs -->
<g id="edge47" class="edge">
<title>mr-&gt;bs</title>
<path fill="none" stroke="#000000" d="M227.6607,-1187.3314C190.7734,-1166.4425 114,-1114.8214 114,-1047.0118 114,-1047.0118 114,-1047.0118 114,-756.3183 114,-712.8694 129.9969,-664.3004 140.9537,-636.1297"/>
<polygon fill="#000000" stroke="#000000" points="144.253,-637.3056 144.7235,-626.7212 137.7552,-634.702 144.253,-637.3056"/>
</g>
<!-- mr&#45;&gt;lf -->
<g id="edge49" class="edge">
<title>mr-&gt;lf</title>
<path fill="none" stroke="#000000" d="M242.5933,-1176.1483C236.9805,-1147.0875 228,-1093.3499 228,-1047.0118 228,-1047.0118 228,-1047.0118 228,-972.3183 228,-931.0228 234.9805,-883.5224 239.9953,-854.7258"/>
<polygon fill="#000000" stroke="#000000" points="243.4808,-855.118 241.8024,-844.6569 236.5909,-853.8814 243.4808,-855.118"/>
</g>
<!-- qc -->
<g id="node51" class="node">
<title>qc</title>
<polygon fill="none" stroke="#000000" points="170,-702.3183 141.5024,-684.3183 170,-666.3183 198.4976,-684.3183 170,-702.3183"/>
<text text-anchor="middle" x="170" y="-680.1183" font-family="Times,serif" font-size="14.00" fill="#000000">qc</text>
</g>
<!-- mr&#45;&gt;qc -->
<g id="edge43" class="edge">
<title>mr-&gt;qc</title>
<path fill="none" stroke="#000000" d="M230.0159,-1183.1601C202.6905,-1158.434 152,-1104.7802 152,-1047.0118 152,-1047.0118 152,-1047.0118 152,-828.3183 152,-786.9884 159.3911,-739.4977 164.7009,-710.7125"/>
<polygon fill="#000000" stroke="#000000" points="168.185,-711.1258 166.6143,-700.648 161.3082,-709.8183 168.185,-711.1258"/>
</g>
<!-- rb -->
<g id="node27" class="node">
<title>rb</title>
<polygon fill="none" stroke="#000000" points="1754,-630.3183 1727,-612.3183 1754,-594.3183 1781,-612.3183 1754,-630.3183"/>
<text text-anchor="middle" x="1754" y="-608.1183" font-family="Times,serif" font-size="14.00" fill="#000000">rb</text>
</g>
<!-- qj -->
<g id="node31" class="node">
<title>qj</title>
<polygon fill="none" stroke="#000000" points="1773,-558.3183 1746,-540.3183 1773,-522.3183 1800,-540.3183 1773,-558.3183"/>
<text text-anchor="middle" x="1773" y="-536.1183" font-family="Times,serif" font-size="14.00" fill="#000000">qj</text>
</g>
<!-- rb&#45;&gt;qj -->
<g id="edge50" class="edge">
<title>rb-&gt;qj</title>
<path fill="none" stroke="#000000" d="M1758.1227,-596.6954C1760.5129,-587.6378 1763.5803,-576.0141 1766.3082,-565.6767"/>
<polygon fill="#000000" stroke="#000000" points="1769.7179,-566.4729 1768.8853,-555.9108 1762.9496,-564.6867 1769.7179,-566.4729"/>
</g>
<!-- sm -->
<g id="node28" class="node">
<title>sm</title>
<polygon fill="none" stroke="#000000" points="664,-414.3183 632.414,-396.3183 664,-378.3183 695.586,-396.3183 664,-414.3183"/>
<text text-anchor="middle" x="664" y="-392.1183" font-family="Times,serif" font-size="14.00" fill="#000000">sm</text>
</g>
<!-- bv -->
<g id="node46" class="node">
<title>bv</title>
<polygon fill="none" stroke="#000000" points="623,-340.6978 593.9682,-322.6978 623,-304.6978 652.0318,-322.6978 623,-340.6978"/>
<text text-anchor="middle" x="623" y="-318.4978" font-family="Times,serif" font-size="14.00" fill="#000000">bv</text>
</g>
<!-- sm&#45;&gt;bv -->
<g id="edge51" class="edge">
<title>sm-&gt;bv</title>
<path fill="none" stroke="#000000" d="M656.2882,-382.4709C650.4677,-372.0194 642.357,-357.4557 635.599,-345.3208"/>
<polygon fill="#000000" stroke="#000000" points="638.462,-343.268 630.5387,-336.2344 632.3464,-346.6739 638.462,-343.268"/>
</g>
<!-- sm&#45;&gt;vv -->
<g id="edge52" class="edge">
<title>sm-&gt;vv</title>
<path fill="none" stroke="#000000" d="M659.9649,-412.179C653.6136,-438.577 642,-493.2788 642,-540.3183 642,-900.3183 642,-900.3183 642,-900.3183 642,-962.696 708.8191,-1010.3456 747.7344,-1032.8072"/>
<polygon fill="#000000" stroke="#000000" points="746.0715,-1035.8874 756.5069,-1037.7183 749.4909,-1029.7794 746.0715,-1035.8874"/>
</g>
<!-- dh -->
<g id="node29" class="node">
<title>dh</title>
<polygon fill="none" stroke="#000000" points="1623,-1065.0118 1593.9682,-1047.0118 1623,-1029.0118 1652.0318,-1047.0118 1623,-1065.0118"/>
<text text-anchor="middle" x="1623" y="-1042.8118" font-family="Times,serif" font-size="14.00" fill="#000000">dh</text>
</g>
<!-- dh&#45;&gt;rg -->
<g id="edge53" class="edge">
<title>dh-&gt;rg</title>
<path fill="none" stroke="#000000" d="M1629.7713,-1032.9625C1634.8821,-1022.3587 1642.0036,-1007.5828 1647.9375,-995.271"/>
<polygon fill="#000000" stroke="#000000" points="1651.1918,-996.5802 1652.3807,-986.0522 1644.886,-993.5409 1651.1918,-996.5802"/>
</g>
<!-- zk&#45;&gt;vz -->
<g id="edge54" class="edge">
<title>zk-&gt;vz</title>
<path fill="none" stroke="#000000" d="M1473.9738,-965.4147C1440.9168,-952.7546 1370.4186,-925.7552 1331.4001,-910.812"/>
<polygon fill="#000000" stroke="#000000" points="1332.562,-907.5091 1321.9717,-907.2011 1330.0584,-914.0461 1332.562,-907.5091"/>
</g>
<!-- xs -->
<g id="node41" class="node">
<title>xs</title>
<polygon fill="none" stroke="#000000" points="1812,-486.3183 1784.0024,-468.3183 1812,-450.3183 1839.9976,-468.3183 1812,-486.3183"/>
<text text-anchor="middle" x="1812" y="-464.1183" font-family="Times,serif" font-size="14.00" fill="#000000">xs</text>
</g>
<!-- qj&#45;&gt;xs -->
<g id="edge55" class="edge">
<title>qj-&gt;xs</title>
<path fill="none" stroke="#000000" d="M1780.3356,-526.7757C1785.8374,-516.6185 1793.4903,-502.4902 1799.8942,-490.6675"/>
<polygon fill="#000000" stroke="#000000" points="1803.0119,-492.2602 1804.6973,-481.8003 1796.8569,-488.9262 1803.0119,-492.2602"/>
</g>
<!-- qj&#45;&gt;pv -->
<g id="edge56" class="edge">
<title>qj-&gt;pv</title>
<path fill="none" stroke="#000000" d="M1770.9613,-523.673C1765.1382,-476.1278 1748.3641,-339.1696 1740.7906,-277.3336"/>
<polygon fill="#000000" stroke="#000000" points="1744.2201,-276.5438 1739.5303,-267.0435 1737.2721,-277.3949 1744.2201,-276.5438"/>
</g>
<!-- ng -->
<g id="node32" class="node">
<title>ng</title>
<polygon fill="none" stroke="#000000" points="1925,-774.3183 1895.9682,-756.3183 1925,-738.3183 1954.0318,-756.3183 1925,-774.3183"/>
<text text-anchor="middle" x="1925" y="-752.1183" font-family="Times,serif" font-size="14.00" fill="#000000">ng</text>
</g>
<!-- ql -->
<g id="node54" class="node">
<title>ql</title>
<polygon fill="none" stroke="#000000" points="1754,-702.3183 1727,-684.3183 1754,-666.3183 1781,-684.3183 1754,-702.3183"/>
<text text-anchor="middle" x="1754" y="-680.1183" font-family="Times,serif" font-size="14.00" fill="#000000">ql</text>
</g>
<!-- ng&#45;&gt;ql -->
<g id="edge57" class="edge">
<title>ng-&gt;ql</title>
<path fill="none" stroke="#000000" d="M1907.6626,-749.0184C1877.6006,-736.3607 1815.6364,-710.2705 1780.266,-695.3777"/>
<polygon fill="#000000" stroke="#000000" points="1781.1998,-691.9733 1770.6252,-691.3184 1778.4834,-698.4248 1781.1998,-691.9733"/>
</g>
<!-- ng&#45;&gt;pv -->
<g id="edge58" class="edge">
<title>ng-&gt;pv</title>
<path fill="none" stroke="#000000" d="M1928.4849,-740.4271C1933.97,-713.985 1944,-659.2214 1944,-612.3183 1944,-612.3183 1944,-612.3183 1944,-396.3183 1944,-354.0262 1953.5003,-334.3239 1925,-303.0772 1903.7487,-279.7781 1815.0255,-260.5452 1767.4516,-251.67"/>
<polygon fill="#000000" stroke="#000000" points="1767.8767,-248.1898 1757.4106,-249.8367 1766.6194,-255.076 1767.8767,-248.1898"/>
</g>
<!-- vj&#45;&gt;bl -->
<g id="edge59" class="edge">
<title>vj-&gt;bl</title>
<path fill="none" stroke="#000000" d="M1121.3976,-479.614C1100.9359,-502.6468 1058,-557.508 1058,-612.3183 1058,-900.3183 1058,-900.3183 1058,-900.3183 1058,-946.7389 1076.8214,-958.9067 1111,-990.3183 1137.2961,-1014.4856 1175.7705,-1030.3451 1201.5643,-1038.99"/>
<polygon fill="#000000" stroke="#000000" points="1200.5164,-1042.3295 1211.1077,-1042.0538 1202.6562,-1035.6645 1200.5164,-1042.3295"/>
</g>
<!-- vj&#45;&gt;sp -->
<g id="edge60" class="edge">
<title>vj-&gt;sp</title>
<path fill="none" stroke="#000000" d="M1145.7269,-458.9056C1163.3347,-446.8317 1194.0893,-425.7428 1214.9851,-411.4143"/>
<polygon fill="#000000" stroke="#000000" points="1217.0018,-414.2753 1223.2697,-405.7334 1213.043,-408.5022 1217.0018,-414.2753"/>
</g>
<!-- kb&#45;&gt;zh -->
<g id="edge61" class="edge">
<title>kb-&gt;zh</title>
<path fill="none" stroke="#000000" d="M255.6881,-166.7386C355.6785,-155.8242 788.9407,-108.5314 908.3994,-95.4919"/>
<polygon fill="#000000" stroke="#000000" points="909.089,-98.9375 918.6502,-94.373 908.3294,-91.9788 909.089,-98.9375"/>
</g>
<!-- sb&#45;&gt;pv -->
<g id="edge62" class="edge">
<title>sb-&gt;pv</title>
<path fill="none" stroke="#000000" d="M1872.1258,-314.6751C1846.7359,-301.8433 1796.6461,-276.5284 1765.0986,-260.5845"/>
<polygon fill="#000000" stroke="#000000" points="1766.4548,-257.3484 1755.9511,-255.9615 1763.2973,-263.5958 1766.4548,-257.3484"/>
</g>
<!-- vl&#45;&gt;mr -->
<g id="edge63" class="edge">
<title>vl-&gt;mr</title>
<path fill="none" stroke="#000000" d="M421.999,-1131.3933C416.1354,-1134.1311 409.3167,-1137.0788 403,-1139.7052 360.0487,-1157.5643 309.4714,-1177.1193 277.6167,-1188.2804"/>
<polygon fill="#000000" stroke="#000000" points="276.2856,-1185.0369 267.9655,-1191.5964 278.5602,-1191.657 276.2856,-1185.0369"/>
</g>
<!-- cz -->
<g id="node39" class="node">
<title>cz</title>
<polygon fill="none" stroke="#000000" points="360,-1065.0118 332.0327,-1047.0118 360,-1029.0118 387.9673,-1047.0118 360,-1065.0118"/>
<text text-anchor="middle" x="360" y="-1042.8118" font-family="Times,serif" font-size="14.00" fill="#000000">cz</text>
</g>
<!-- vl&#45;&gt;cz -->
<g id="edge64" class="edge">
<title>vl-&gt;cz</title>
<path fill="none" stroke="#000000" d="M423.9335,-1110.684C411.9691,-1098.7685 392.7007,-1079.5788 378.4407,-1065.3771"/>
<polygon fill="#000000" stroke="#000000" points="380.6673,-1062.6549 371.1119,-1058.0783 375.7277,-1067.6148 380.6673,-1062.6549"/>
</g>
<!-- dc&#45;&gt;lr -->
<g id="edge65" class="edge">
<title>dc-&gt;lr</title>
<path fill="none" stroke="#000000" d="M1147.6603,-596.6954C1145.1443,-587.6378 1141.9155,-576.0141 1139.044,-565.6767"/>
<polygon fill="#000000" stroke="#000000" points="1142.3801,-564.6092 1136.3312,-555.9108 1135.6354,-566.4827 1142.3801,-564.6092"/>
</g>
<!-- xc&#45;&gt;rk -->
<g id="edge66" class="edge">
<title>xc-&gt;rk</title>
<path fill="none" stroke="#000000" d="M1220.6644,-742.7757C1215.1626,-732.6185 1207.5097,-718.4902 1201.1058,-706.6675"/>
<polygon fill="#000000" stroke="#000000" points="1204.1431,-704.9262 1196.3027,-697.8003 1197.9881,-708.2602 1204.1431,-704.9262"/>
</g>
<!-- xc&#45;&gt;bl -->
<g id="edge67" class="edge">
<title>xc-&gt;bl</title>
<path fill="none" stroke="#000000" d="M1228.0623,-774.4167C1228.2306,-823.3484 1228.6958,-958.586 1228.9008,-1018.1767"/>
<polygon fill="#000000" stroke="#000000" points="1225.4014,-1018.3975 1228.9359,-1028.3854 1232.4014,-1018.3734 1225.4014,-1018.3975"/>
</g>
<!-- cz&#45;&gt;cg -->
<g id="edge68" class="edge">
<title>cz-&gt;cg</title>
<path fill="none" stroke="#000000" d="M353.0302,-1033.3119C347.6006,-1022.6394 339.9445,-1007.5903 333.5958,-995.1112"/>
<polygon fill="#000000" stroke="#000000" points="336.7082,-993.5102 329.0543,-986.1844 330.4692,-996.6843 336.7082,-993.5102"/>
</g>
<!-- cz&#45;&gt;mr -->
<g id="edge69" class="edge">
<title>cz-&gt;mr</title>
<path fill="none" stroke="#000000" d="M355.502,-1062.2904C349.2794,-1081.676 336.6584,-1115.4964 318,-1139.7052 305.8699,-1155.4438 288.6496,-1169.5891 274.2061,-1179.9425"/>
<polygon fill="#000000" stroke="#000000" points="271.8665,-1177.3055 265.6422,-1185.8792 275.8546,-1183.0584 271.8665,-1177.3055"/>
</g>
<!-- hz&#45;&gt;hx -->
<g id="edge71" class="edge">
<title>hz-&gt;hx</title>
<path fill="none" stroke="#000000" d="M1221.3154,-314.3856C1196.3207,-301.1395 1147.2537,-275.136 1117.5676,-259.4036"/>
<polygon fill="#000000" stroke="#000000" points="1119.1401,-256.2759 1108.6653,-254.6857 1115.8623,-262.461 1119.1401,-256.2759"/>
</g>
<!-- hz&#45;&gt;bl -->
<g id="edge70" class="edge">
<title>hz-&gt;bl</title>
<path fill="none" stroke="#000000" d="M1255.4687,-329.2401C1297.7582,-345.5344 1398,-392.1875 1398,-468.3183 1398,-900.3183 1398,-900.3183 1398,-900.3183 1398,-974.4939 1304.004,-1019.6213 1256.2129,-1037.7721"/>
<polygon fill="#000000" stroke="#000000" points="1254.9499,-1034.5072 1246.7665,-1041.2365 1257.3602,-1041.0792 1254.9499,-1034.5072"/>
</g>
<!-- xs&#45;&gt;cn -->
<g id="edge73" class="edge">
<title>xs-&gt;cn</title>
<path fill="none" stroke="#000000" d="M1819.1475,-454.7757C1824.388,-444.8464 1831.6314,-431.1221 1837.7828,-419.4666"/>
<polygon fill="#000000" stroke="#000000" points="1841.0531,-420.7689 1842.6253,-410.2914 1834.8624,-417.5016 1841.0531,-420.7689"/>
</g>
<!-- xs&#45;&gt;pv -->
<g id="edge72" class="edge">
<title>xs-&gt;pv</title>
<path fill="none" stroke="#000000" d="M1809.389,-451.8909C1804.242,-421.6349 1791.3907,-355.4101 1770,-303.0772 1765.6897,-292.5319 1759.7093,-281.5716 1754.0221,-272.1306"/>
<polygon fill="#000000" stroke="#000000" points="1756.9757,-270.2523 1748.7234,-263.6077 1751.0309,-273.9482 1756.9757,-270.2523"/>
</g>
<!-- js&#45;&gt;ng -->
<g id="edge74" class="edge">
<title>js-&gt;ng</title>
<path fill="none" stroke="#000000" d="M1940.7585,-813.049C1938.2474,-804.0088 1935.0013,-792.323 1932.1084,-781.9087"/>
<polygon fill="#000000" stroke="#000000" points="1935.4225,-780.7618 1929.3736,-772.0634 1928.6778,-782.6354 1935.4225,-780.7618"/>
</g>
<!-- cb -->
<g id="node43" class="node">
<title>cb</title>
<polygon fill="none" stroke="#000000" points="151,-558.3183 122.5024,-540.3183 151,-522.3183 179.4976,-540.3183 151,-558.3183"/>
<text text-anchor="middle" x="151" y="-536.1183" font-family="Times,serif" font-size="14.00" fill="#000000">cb</text>
</g>
<!-- cb&#45;&gt;mr -->
<g id="edge75" class="edge">
<title>cb-&gt;mr</title>
<path fill="none" stroke="#000000" d="M140.2543,-551.5875C119.5162,-574.5726 76,-629.3525 76,-684.3183 76,-1047.0118 76,-1047.0118 76,-1047.0118 76,-1094.6899 95.1453,-1107.173 130,-1139.7052 154.8536,-1162.9028 190.7773,-1178.7537 216.2499,-1187.8993"/>
<polygon fill="#000000" stroke="#000000" points="215.1964,-1191.2382 225.7911,-1191.1884 217.4777,-1184.6203 215.1964,-1191.2382"/>
</g>
<!-- nc -->
<g id="node49" class="node">
<title>nc</title>
<polygon fill="none" stroke="#000000" points="274,-486.3183 245.5024,-468.3183 274,-450.3183 302.4976,-468.3183 274,-486.3183"/>
<text text-anchor="middle" x="274" y="-464.1183" font-family="Times,serif" font-size="14.00" fill="#000000">nc</text>
</g>
<!-- cb&#45;&gt;nc -->
<g id="edge76" class="edge">
<title>cb-&gt;nc</title>
<path fill="none" stroke="#000000" d="M166.0822,-531.4897C187.1288,-519.1698 225.5151,-496.6998 250.3767,-482.1466"/>
<polygon fill="#000000" stroke="#000000" points="252.3166,-485.0667 259.1786,-476.9943 248.7803,-479.0256 252.3166,-485.0667"/>
</g>
<!-- qb -->
<g id="node44" class="node">
<title>qb</title>
<polygon fill="none" stroke="#000000" points="604,-264.3838 574.9682,-246.3838 604,-228.3838 633.0318,-246.3838 604,-264.3838"/>
<text text-anchor="middle" x="604" y="-242.1838" font-family="Times,serif" font-size="14.00" fill="#000000">qb</text>
</g>
<!-- qb&#45;&gt;vv -->
<g id="edge77" class="edge">
<title>qb-&gt;vv</title>
<path fill="none" stroke="#000000" d="M597.7251,-260.9687C586.932,-287.4202 566,-345.297 566,-396.3183 566,-900.3183 566,-900.3183 566,-900.3183 566,-947.4295 585.5022,-960.5296 622,-990.3183 658.1398,-1019.8148 711.0954,-1034.8225 744.2779,-1041.7762"/>
<polygon fill="#000000" stroke="#000000" points="743.8214,-1045.2536 754.3103,-1043.7591 745.1788,-1038.3865 743.8214,-1045.2536"/>
</g>
<!-- gc&#45;&gt;qc -->
<g id="edge78" class="edge">
<title>gc-&gt;qc</title>
<path fill="none" stroke="#000000" d="M200.8525,-742.7757C195.612,-732.8464 188.3686,-719.1221 182.2172,-707.4666"/>
<polygon fill="#000000" stroke="#000000" points="185.1376,-705.5016 177.3747,-698.2914 178.9469,-708.7689 185.1376,-705.5016"/>
</g>
<!-- bv&#45;&gt;qb -->
<g id="edge79" class="edge">
<title>bv-&gt;qb</title>
<path fill="none" stroke="#000000" d="M619.0632,-306.8855C616.5666,-296.8578 613.2785,-283.6512 610.4115,-272.1359"/>
<polygon fill="#000000" stroke="#000000" points="613.7441,-271.034 607.9318,-262.1758 606.9515,-272.7252 613.7441,-271.034"/>
</g>
<!-- bv&#45;&gt;vv -->
<g id="edge80" class="edge">
<title>bv-&gt;vv</title>
<path fill="none" stroke="#000000" d="M619.5151,-338.7699C614.03,-365.5124 604,-420.8965 604,-468.3183 604,-900.3183 604,-900.3183 604,-900.3183 604,-974.0542 696.7251,-1018.74 745.6139,-1037.176"/>
<polygon fill="#000000" stroke="#000000" points="744.4555,-1040.4789 755.0495,-1040.6135 746.8517,-1033.9018 744.4555,-1040.4789"/>
</g>
<!-- bs&#45;&gt;cb -->
<g id="edge85" class="edge">
<title>bs-&gt;cb</title>
<path fill="none" stroke="#000000" d="M151,-594.1497C151,-586.4493 151,-577.2927 151,-568.735"/>
<polygon fill="#000000" stroke="#000000" points="154.5001,-568.7316 151,-558.7316 147.5001,-568.7316 154.5001,-568.7316"/>
</g>
<!-- lf&#45;&gt;gc -->
<g id="edge86" class="edge">
<title>lf-&gt;gc</title>
<path fill="none" stroke="#000000" d="M238.0406,-814.7757C232.938,-804.8464 225.8853,-791.1221 219.8957,-779.4666"/>
<polygon fill="#000000" stroke="#000000" points="222.8643,-777.5859 215.1806,-770.2914 216.6383,-780.7855 222.8643,-777.5859"/>
</g>
<!-- nc&#45;&gt;rj -->
<g id="edge88" class="edge">
<title>nc-&gt;rj</title>
<path fill="none" stroke="#000000" d="M274,-450.1497C274,-442.4493 274,-433.2927 274,-424.735"/>
<polygon fill="#000000" stroke="#000000" points="277.5001,-424.7316 274,-414.7316 270.5001,-424.7316 277.5001,-424.7316"/>
</g>
<!-- nc&#45;&gt;mr -->
<g id="edge87" class="edge">
<title>nc-&gt;mr</title>
<path fill="none" stroke="#000000" d="M291.1285,-475.762C328.8962,-493.4641 416,-541.9214 416,-612.3183 416,-972.3183 416,-972.3183 416,-972.3183 416,-1053.4795 403.236,-1085.3108 343,-1139.7052 322.8108,-1157.9366 296.03,-1173.4874 275.8848,-1183.8454"/>
<polygon fill="#000000" stroke="#000000" points="274.2371,-1180.7562 266.8654,-1188.366 277.3736,-1187.0142 274.2371,-1180.7562"/>
</g>
<!-- ln -->
<g id="node50" class="node">
<title>ln</title>
<polygon fill="none" stroke="#000000" points="1557,-1139.7052 1530,-1121.7052 1557,-1103.7052 1584,-1121.7052 1557,-1139.7052"/>
<text text-anchor="middle" x="1557" y="-1117.5052" font-family="Times,serif" font-size="14.00" fill="#000000">ln</text>
</g>
<!-- ln&#45;&gt;dh -->
<g id="edge90" class="edge">
<title>ln-&gt;dh</title>
<path fill="none" stroke="#000000" d="M1567.024,-1110.3609C1577.2732,-1098.7616 1593.3926,-1080.519 1605.7066,-1066.5831"/>
<polygon fill="#000000" stroke="#000000" points="1608.4452,-1068.7695 1612.444,-1058.9582 1603.1996,-1064.1344 1608.4452,-1068.7695"/>
</g>
<!-- ln&#45;&gt;pv -->
<g id="edge89" class="edge">
<title>ln-&gt;pv</title>
<path fill="none" stroke="#000000" d="M1551.6795,-1106.8629C1548,-1080.0154 1548,-1021.5953 1548,-972.3183 1548,-972.3183 1548,-972.3183 1548,-396.3183 1548,-347.9782 1567.9583,-335.2916 1604,-303.0772 1633.5225,-276.6897 1677.4073,-260.5806 1706.7908,-252.5841"/>
<polygon fill="#000000" stroke="#000000" points="1707.7124,-255.9611 1716.532,-250.0904 1705.9763,-249.1798 1707.7124,-255.9611"/>
</g>
<!-- qc&#45;&gt;bs -->
<g id="edge91" class="edge">
<title>qc-&gt;bs</title>
<path fill="none" stroke="#000000" d="M165.8773,-668.6954C163.4871,-659.6378 160.4197,-648.0141 157.6918,-637.6767"/>
<polygon fill="#000000" stroke="#000000" points="161.0504,-636.6867 155.1147,-627.9108 154.2821,-638.4729 161.0504,-636.6867"/>
</g>
<!-- vv&#45;&gt;lx -->
<g id="edge97" class="edge">
<title>vv-&gt;lx</title>
<path fill="none" stroke="#000000" d="M793.2498,-1037.0982C809.5218,-1027.3186 832.7563,-1010.8704 846,-990.3183 872.9424,-948.508 882.1866,-890.0406 885.3539,-855.9793"/>
<polygon fill="#000000" stroke="#000000" points="888.8571,-856.0819 886.1835,-845.83 881.8804,-855.5116 888.8571,-856.0819"/>
</g>
<!-- vv&#45;&gt;hp -->
<g id="edge95" class="edge">
<title>vv-&gt;hp</title>
<path fill="none" stroke="#000000" d="M779.3114,-1026.7106C784.9172,-998.4978 794,-945.7726 794,-900.3183 794,-900.3183 794,-900.3183 794,-828.3183 794,-786.7286 801.8863,-738.9582 807.4972,-710.2335"/>
<polygon fill="#000000" stroke="#000000" points="810.9727,-710.7037 809.5151,-700.2096 804.1104,-709.3222 810.9727,-710.7037"/>
</g>
<!-- vv&#45;&gt;jt -->
<g id="edge93" class="edge">
<title>vv-&gt;jt</title>
<path fill="none" stroke="#000000" d="M754.0818,-1046.0346C715.503,-1043.2265 632.2371,-1032.3578 579,-990.3183 542.9177,-961.8254 528,-946.2942 528,-900.3183 528,-900.3183 528,-900.3183 528,-322.6978 528,-276.3935 535.7459,-260.7442 566,-225.6903 585.4144,-203.1958 616.0736,-187.5959 638.1305,-178.5351"/>
<polygon fill="#000000" stroke="#000000" points="639.5533,-181.7368 647.5882,-174.8308 637.0004,-175.2189 639.5533,-181.7368"/>
</g>
<!-- vv&#45;&gt;fb -->
<g id="edge94" class="edge">
<title>vv-&gt;fb</title>
<path fill="none" stroke="#000000" d="M793.3521,-1056.7922C812.2724,-1068.7662 841.1887,-1089.27 860.231,-1104.0331"/>
<polygon fill="#000000" stroke="#000000" points="858.2032,-1106.8919 868.214,-1110.3609 862.5515,-1101.4062 858.2032,-1106.8919"/>
</g>
<!-- vv&#45;&gt;gv -->
<g id="edge96" class="edge">
<title>vv-&gt;gv</title>
<path fill="none" stroke="#000000" d="M795.1059,-1040.9431C819.0004,-1032.8359 858.7976,-1016.39 884,-990.3183 901.5474,-972.1657 913.0548,-945.498 919.7104,-925.902"/>
<polygon fill="#000000" stroke="#000000" points="923.1287,-926.7029 922.8357,-916.1121 916.4602,-924.574 923.1287,-926.7029"/>
</g>
<!-- vv&#45;&gt;zd -->
<g id="edge92" class="edge">
<title>vv-&gt;zd</title>
<path fill="none" stroke="#000000" d="M794.5883,-1039.7192C822.8496,-1029.1385 876.6496,-1008.7741 922,-990.3183 927.015,-988.2775 932.3411,-986.0454 937.4561,-983.8692"/>
<polygon fill="#000000" stroke="#000000" points="939.0859,-986.9785 946.8948,-979.818 936.325,-980.5459 939.0859,-986.9785"/>
</g>
<!-- ks&#45;&gt;zh -->
<g id="edge98" class="edge">
<title>ks-&gt;zh</title>
<path fill="none" stroke="#000000" d="M1352.5705,-313.3746C1285.9831,-277.7563 1047.3357,-150.1015 966.2142,-106.7088"/>
<polygon fill="#000000" stroke="#000000" points="967.593,-103.4771 957.1244,-101.8466 964.2913,-109.6496 967.593,-103.4771"/>
</g>
<!-- ql&#45;&gt;rb -->
<g id="edge99" class="edge">
<title>ql-&gt;rb</title>
<path fill="none" stroke="#000000" d="M1754,-666.1497C1754,-658.4493 1754,-649.2927 1754,-640.735"/>
<polygon fill="#000000" stroke="#000000" points="1757.5001,-640.7316 1754,-630.7316 1750.5001,-640.7316 1757.5001,-640.7316"/>
</g>
<!-- tp&#45;&gt;sm -->
<g id="edge100" class="edge">
<title>tp-&gt;sm</title>
<path fill="none" stroke="#000000" d="M690.6373,-454.436C686.1756,-444.7014 680.0993,-431.4442 674.8768,-420.0495"/>
<polygon fill="#000000" stroke="#000000" points="677.9174,-418.2832 670.5691,-410.6509 671.5539,-421.1998 677.9174,-418.2832"/>
</g>
<!-- tp&#45;&gt;vv -->
<g id="edge101" class="edge">
<title>tp-&gt;vv</title>
<path fill="none" stroke="#000000" d="M693.8024,-484.6569C688.8779,-511.2845 680,-565.7472 680,-612.3183 680,-900.3183 680,-900.3183 680,-900.3183 680,-952.736 723.2632,-1001.2117 751.3986,-1027.1946"/>
<polygon fill="#000000" stroke="#000000" points="749.1039,-1029.8381 758.8845,-1033.9113 753.7788,-1024.6278 749.1039,-1029.8381"/>
</g>
<!-- pv&#45;&gt;sx -->
<g id="edge102" class="edge">
<title>pv-&gt;sx</title>
<path fill="none" stroke="#000000" d="M1718.1575,-237.8063C1688.1011,-224.1242 1629.1625,-197.2943 1594.4271,-181.4821"/>
<polygon fill="#000000" stroke="#000000" points="1595.4507,-178.1025 1584.8992,-177.1449 1592.5505,-184.4735 1595.4507,-178.1025"/>
</g>
<!-- pv&#45;&gt;jl -->
<g id="edge104" class="edge">
<title>pv-&gt;jl</title>
<path fill="none" stroke="#000000" d="M1757.6348,-248.9593C1809.2142,-255.7526 1942.0502,-275.5449 1976,-303.0772 2011.5904,-331.94 2020,-350.4955 2020,-396.3183 2020,-756.3183 2020,-756.3183 2020,-756.3183 2020,-805.9164 1984.5681,-855.3631 1962.4112,-881.435"/>
<polygon fill="#000000" stroke="#000000" points="1959.6991,-879.2196 1955.7457,-889.0492 1964.966,-883.8304 1959.6991,-879.2196"/>
</g>
<!-- pv&#45;&gt;rb -->
<g id="edge107" class="edge">
<title>pv-&gt;rb</title>
<path fill="none" stroke="#000000" d="M1732.7833,-266.6517C1727.1857,-295.3705 1718,-349.6138 1718,-396.3183 1718,-468.3183 1718,-468.3183 1718,-468.3183 1718,-511.6955 1733.5645,-560.2871 1744.2252,-588.4817"/>
<polygon fill="#000000" stroke="#000000" points="1741.0024,-589.851 1747.8931,-597.8989 1747.5251,-587.3105 1741.0024,-589.851"/>
</g>
<!-- pv&#45;&gt;dh -->
<g id="edge103" class="edge">
<title>pv-&gt;dh</title>
<path fill="none" stroke="#000000" d="M1718.1699,-255.1272C1699.2241,-264.6937 1670.145,-281.5733 1651,-303.0772 1620.1412,-337.7383 1604,-349.9108 1604,-396.3183 1604,-900.3183 1604,-900.3183 1604,-900.3183 1604,-942.8594 1611.9559,-991.7695 1617.5713,-1020.9925"/>
<polygon fill="#000000" stroke="#000000" points="1614.1412,-1021.6892 1619.5151,-1030.8199 1621.0081,-1020.3308 1614.1412,-1021.6892"/>
</g>
<!-- pv&#45;&gt;js -->
<g id="edge106" class="edge">
<title>pv-&gt;js</title>
<path fill="none" stroke="#000000" d="M1757.7865,-249.4876C1805.2807,-256.9598 1919.8257,-277.2577 1948,-303.0772 1980.5196,-332.8788 1982,-352.2087 1982,-396.3183 1982,-684.3183 1982,-684.3183 1982,-684.3183 1982,-727.9972 1965.8334,-776.8503 1954.8728,-804.9524"/>
<polygon fill="#000000" stroke="#000000" points="1951.5901,-803.735 1951.1098,-814.3189 1958.0855,-806.3445 1951.5901,-803.735"/>
</g>
<!-- pv&#45;&gt;ln -->
<g id="edge105" class="edge">
<title>pv-&gt;ln</title>
<path fill="none" stroke="#000000" d="M1717.406,-253.3652C1692.6526,-261.6072 1650.5911,-277.5222 1622,-303.0772 1585.9583,-335.2916 1566,-347.9782 1566,-396.3183 1566,-972.3183 1566,-972.3183 1566,-972.3183 1566,-1016.0131 1566,-1066.8969 1563.4347,-1096.5827"/>
<polygon fill="#000000" stroke="#000000" points="1559.9185,-1096.544 1562.3205,-1106.8629 1566.8777,-1097.2983 1559.9185,-1096.544"/>
</g>
<!-- pv&#45;&gt;ql -->
<g id="edge108" class="edge">
<title>pv-&gt;ql</title>
<path fill="none" stroke="#000000" d="M1725.4652,-264.0204C1708.8096,-291.2354 1680,-345.6352 1680,-396.3183 1680,-540.3183 1680,-540.3183 1680,-540.3183 1680,-589.7761 1714.9595,-639.2753 1736.8209,-665.3939"/>
<polygon fill="#000000" stroke="#000000" points="1734.2172,-667.734 1743.3976,-673.0227 1739.519,-663.1633 1734.2172,-667.734"/>
</g>
<!-- zd&#45;&gt;gv -->
<g id="edge109" class="edge">
<title>zd-&gt;gv</title>
<path fill="none" stroke="#000000" d="M956.866,-958.436C951.7474,-948.4754 944.7334,-934.8266 938.7889,-923.2589"/>
<polygon fill="#000000" stroke="#000000" points="941.7958,-921.4526 934.1121,-914.158 935.5698,-924.6521 941.7958,-921.4526"/>
</g>
<!-- broadcaster -->
<g id="node59" class="node">
<title>broadcaster</title>
<ellipse fill="none" stroke="#000000" cx="1073" cy="-1197.4687" rx="55.5753" ry="18"/>
<text text-anchor="middle" x="1073" y="-1193.2687" font-family="Times,serif" font-size="14.00" fill="#000000">broadcaster</text>
</g>
<!-- broadcaster&#45;&gt;fb -->
<g id="edge82" class="edge">
<title>broadcaster-&gt;fb</title>
<path fill="none" stroke="#000000" d="M1037.4174,-1183.5725C999.3858,-1168.7199 939.9556,-1145.5104 905.726,-1132.1427"/>
<polygon fill="#000000" stroke="#000000" points="906.959,-1128.8668 896.3709,-1128.4892 904.4125,-1135.3872 906.959,-1128.8668"/>
</g>
<!-- broadcaster&#45;&gt;kn -->
<g id="edge81" class="edge">
<title>broadcaster-&gt;kn</title>
<path fill="none" stroke="#000000" d="M1104.194,-1182.3189C1133.3361,-1168.1657 1176.3107,-1147.2945 1203.4667,-1134.1058"/>
<polygon fill="#000000" stroke="#000000" points="1205.2348,-1137.1381 1212.701,-1129.6211 1202.1767,-1130.8415 1205.2348,-1137.1381"/>
</g>
<!-- broadcaster&#45;&gt;vl -->
<g id="edge84" class="edge">
<title>broadcaster-&gt;vl</title>
<path fill="none" stroke="#000000" d="M1020.7898,-1191.2686C893.9043,-1176.2008 572.1323,-1137.9899 468.0365,-1125.6284"/>
<polygon fill="#000000" stroke="#000000" points="468.4414,-1122.152 458.0985,-1124.4482 467.6159,-1129.1031 468.4414,-1122.152"/>
</g>
<!-- broadcaster&#45;&gt;ln -->
<g id="edge83" class="edge">
<title>broadcaster-&gt;ln</title>
<path fill="none" stroke="#000000" d="M1123.4268,-1189.5751C1223.0497,-1173.9805 1442.5691,-1139.6178 1524.937,-1126.7243"/>
<polygon fill="#000000" stroke="#000000" points="1525.6177,-1130.1604 1534.9561,-1125.1559 1524.5351,-1123.2446 1525.6177,-1130.1604"/>
</g>
</g>
</svg>